# Blender 4.5.0
# www.blender.org
mtllib Crystal1.mtl
o crystal_21
v 0.754265 0.025196 0.213338
v 0.754263 2.330589 0.442728
v 0.952921 0.025196 0.328032
v 0.952921 0.025196 0.557421
v 0.754265 0.025196 0.672116
v 0.555608 0.025196 0.557421
v 0.555608 0.025196 0.328032
v 1.103245 1.802473 0.241243
v 0.754263 1.802473 0.039758
v 1.103245 1.802473 0.644213
v 0.754263 1.802473 0.845698
v 0.405281 1.802473 0.644213
v 0.405281 1.802473 0.241243
v 0.067293 0.025196 -0.394699
v 0.067289 5.157803 0.116004
v 0.509572 0.025196 -0.139349
v 0.509572 0.025196 0.371350
v 0.067293 0.025196 0.626700
v -0.374986 0.025196 0.371350
v -0.374986 0.025196 -0.139349
v 0.844246 3.982031 -0.332573
v 0.067290 3.982031 -0.781149
v 0.844246 3.982031 0.564579
v 0.067290 3.982031 1.013155
v -0.709666 3.982031 0.564579
v -0.709666 3.982031 -0.332573
v -0.915551 0.054751 0.204601
v -1.873966 2.687968 0.483425
v -0.688645 0.054751 0.344012
v -0.688645 0.054751 0.622835
v -0.915551 0.054751 0.762247
v -1.142456 0.054751 0.622835
v -1.142456 0.054751 0.344012
v -1.255806 2.229835 0.238520
v -1.654413 2.084754 -0.006386
v -1.255806 2.229835 0.728331
v -1.654413 2.084754 0.973236
v -2.053020 1.939673 0.728331
v -2.053020 1.939673 0.238520
v -0.507133 0.025196 0.793298
v -0.507135 2.932359 1.082565
v -0.256622 0.025196 0.937930
v -0.256622 0.025196 1.227196
v -0.507133 0.025196 1.371829
v -0.757645 0.025196 1.227196
v -0.757645 0.025196 0.937930
v -0.067059 2.266389 0.828487
v -0.507135 2.266389 0.574408
v -0.067059 2.266389 1.336643
v -0.507135 2.266389 1.590721
v -0.947211 2.266389 1.336643
v -0.947211 2.266389 0.828487
v -0.616195 0.101916 -0.559159
v -2.055725 3.080984 -1.108939
v -0.442244 0.101916 -0.295516
v -0.584500 0.101916 0.005945
v -0.900706 0.101916 0.043763
v -1.074657 0.101916 -0.219881
v -0.932401 0.101916 -0.521342
v -1.217504 2.609270 -1.000996
v -1.508644 2.356043 -1.443517
v -1.467407 2.651769 -0.471416
v -2.008449 2.441042 -0.384358
v -2.299589 2.187815 -0.826880
v -2.049687 2.145315 -1.356459
v 0.064249 0.028104 1.128669
v 0.928101 2.924328 2.566225
v 0.072976 0.028104 0.815912
v 0.362416 0.028103 0.652126
v 0.643129 0.028103 0.801096
v 0.634401 0.028104 1.113853
v 0.344961 0.028104 1.277639
v 0.303385 2.484285 1.972196
v 0.288053 2.202623 2.487117
v 0.811848 2.542526 1.684471
v 1.304978 2.319106 1.911667
v 1.289646 2.037444 2.426587
v 0.781183 1.979202 2.714313
v 1.082871 0.025196 -0.126120
v 1.748089 3.181553 -1.120596
v 0.767104 0.025196 -0.079304
v 0.552274 0.025196 -0.335329
v 0.653211 0.025196 -0.638170
v 0.968978 0.025196 -0.684986
v 1.183808 0.025196 -0.428961
v 1.369171 2.632403 -0.419429
v 1.923883 2.458499 -0.501671
v 0.991776 2.632403 -0.869191
v 1.169094 2.458499 -1.401194
v 1.723806 2.284595 -1.483436
v 2.101201 2.284595 -1.033675
v 0.483110 -0.000000 -0.821526
v 0.335141 3.602329 -2.178988
v 0.241386 -0.000000 -0.548946
v -0.134258 -0.000000 -0.615182
v -0.268178 -0.000000 -0.953999
v -0.026453 -0.000000 -1.226579
v 0.349191 -0.000000 -1.160343
v 0.518243 2.975588 -1.287993
v 0.942884 2.777112 -1.766838
v -0.141655 2.975588 -1.404351
v -0.376912 2.777112 -1.999553
v 0.047729 2.578636 -2.478398
v 0.707627 2.578636 -2.362040
vn 0.4982 -0.0843 -0.8629
vn 0.9964 -0.0843 -0.0000
vn 0.4982 -0.0843 0.8629
vn -0.4982 -0.0843 0.8629
vn -0.9964 -0.0843 -0.0000
vn -0.4982 -0.0843 -0.8629
vn -0.0000 -1.0000 -0.0000
vn 0.4172 0.5513 -0.7225
vn 0.8343 0.5513 -0.0000
vn 0.4172 0.5513 0.7225
vn -0.4172 0.5513 0.7225
vn -0.8343 0.5513 -0.0000
vn -0.4172 0.5513 -0.7225
vn 0.5056 0.0925 -0.8578
vn 0.9676 0.2523 -0.0000
vn 0.5056 0.0925 0.8578
vn -0.4602 -0.2625 0.8481
vn -0.9004 -0.4350 -0.0000
vn -0.4602 -0.2625 -0.8481
vn 0.2034 0.6607 -0.7225
vn 0.5954 0.8034 -0.0000
vn 0.2034 0.6607 0.7225
vn -0.5806 0.3754 0.7225
vn -0.9725 0.2327 -0.0000
vn -0.5806 0.3754 -0.7225
vn 0.8154 0.0949 -0.5711
vn 0.8482 0.3674 0.3815
vn 0.0885 0.2161 0.9723
vn -0.7603 -0.2617 0.5946
vn -0.7655 -0.5505 -0.3331
vn -0.0391 -0.3869 -0.9213
vn 0.4360 0.6270 -0.6456
vn 0.4698 0.8696 0.1519
vn -0.1791 0.7316 0.6578
vn -0.8618 0.3509 0.3662
vn -0.8957 0.1083 -0.4313
vn -0.2468 0.2463 -0.9372
vn -0.9954 0.0957 0.0036
vn -0.4719 0.4085 -0.7813
vn 0.4820 0.2615 -0.8363
vn 0.9635 -0.2608 -0.0608
vn 0.4292 -0.5919 0.6822
vn -0.4921 -0.4329 0.7552
vn -0.7274 0.6109 0.3125
vn -0.2977 0.8897 -0.3460
vn 0.5240 0.7542 -0.3957
vn 0.9160 0.3399 0.2132
vn 0.4863 0.0610 0.8717
vn -0.3354 0.1965 0.9213
vn 0.1641 0.0925 0.9821
vn -0.7413 0.2523 0.6220
vn -0.9387 0.0925 -0.3321
vn -0.1926 -0.2625 -0.9455
vn 0.6898 -0.4350 -0.5788
vn 0.8977 -0.2625 0.3539
vn 0.3086 0.6607 0.6843
vn -0.4561 0.8034 0.3827
vn -0.6203 0.6607 -0.4227
vn -0.0197 0.3754 -0.9267
vn 0.7450 0.2327 -0.6251
vn 0.9092 0.3754 0.1803
vn 0.7570 0.0925 0.6469
vn -0.1680 0.2523 0.9529
vn -0.9326 0.0925 0.3490
vn -0.7553 -0.2625 -0.6005
vn 0.1564 -0.4350 -0.8868
vn 0.9152 -0.2625 -0.3059
vn 0.6762 0.6607 0.3258
vn -0.1034 0.8034 0.5864
vn -0.7469 0.6607 0.0749
vn -0.6107 0.3754 -0.6972
vn 0.1689 0.2327 -0.9578
vn 0.8124 0.3754 -0.4463
vt 0.541017 0.062338
vt 0.541017 0.363495
vt 0.546784 0.363495
vt 0.544299 0.062338
vt 0.535250 0.363495
vt 0.537734 0.062338
vt 0.541017 0.452982
vt 0.529665 0.062338
vt 0.529665 0.732818
vt 0.542504 0.732818
vt 0.536973 0.062338
vt 0.516826 0.732818
vt 0.522357 0.062338
vt 0.529665 0.932051
vt 0.513424 0.067345
vt 0.501215 0.411327
vt 0.507802 0.435912
vt 0.517174 0.067346
vt 0.513424 0.067346
vt 0.494628 0.386743
vt 0.509675 0.067345
vt 0.497587 0.513541
vt 0.520173 0.062338
vt 0.520173 0.442105
vt 0.527445 0.442105
vt 0.524313 0.062338
vt 0.512901 0.442105
vt 0.516033 0.062338
vt 0.520173 0.554951
vt 0.518371 0.075338
vt 0.503624 0.457296
vt 0.508435 0.500206
vt 0.521245 0.075338
vt 0.504305 0.507407
vt 0.518895 0.075338
vt 0.495364 0.471699
vt 0.513669 0.075338
vt 0.490554 0.428790
vt 0.510795 0.075338
vt 0.494683 0.421589
vt 0.513146 0.075338
vt 0.494584 0.580137
vt 0.529615 0.062830
vt 0.533313 0.431299
vt 0.533567 0.479026
vt 0.529759 0.062830
vt 0.541968 0.488896
vt 0.534542 0.062830
vt 0.550117 0.451038
vt 0.539180 0.062830
vt 0.549864 0.403311
vt 0.539036 0.062830
vt 0.541462 0.393441
vt 0.534253 0.062830
vt 0.543889 0.553592
vt 0.546447 0.062338
vt 0.560344 0.474658
vt 0.551178 0.504126
vt 0.541229 0.062338
vt 0.544941 0.504126
vt 0.537679 0.062338
vt 0.547872 0.474658
vt 0.539347 0.062338
vt 0.557038 0.445190
vt 0.544565 0.062338
vt 0.563274 0.445190
vt 0.548115 0.062338
vt 0.557439 0.597179
vt 0.536536 0.058069
vt 0.544134 0.528646
vt 0.537117 0.562277
vt 0.532542 0.058069
vt 0.526212 0.562277
vt 0.526335 0.058069
vt 0.522325 0.528646
vt 0.524122 0.058069
vt 0.529342 0.495016
vt 0.528116 0.058069
vt 0.540246 0.495016
vt 0.534323 0.058069
vt 0.534091 0.668478
s 1
usemtl Material.001
f 1/1/1 9/2/1 8/3/1 3/4/1
f 3/4/2 8/3/2 10/3/2 4/4/2
f 4/4/3 10/3/3 11/2/3 5/1/3
f 5/1/4 11/2/4 12/5/4 6/6/4
f 6/6/5 12/5/5 13/5/5 7/6/5
f 7/6/6 13/5/6 9/2/6 1/1/6
f 6/6/7 7/6/7 3/4/7
f 2/7/8 8/3/8 9/2/8
f 2/7/9 10/3/9 8/3/9
f 2/7/10 11/2/10 10/3/10
f 2/7/11 12/5/11 11/2/11
f 2/7/12 13/5/12 12/5/12
f 2/7/13 9/2/13 13/5/13
f 14/8/1 22/9/1 21/10/1 16/11/1
f 16/11/2 21/10/2 23/10/2 17/11/2
f 17/11/3 23/10/3 24/9/3 18/8/3
f 18/8/4 24/9/4 25/12/4 19/13/4
f 19/13/5 25/12/5 26/12/5 20/13/5
f 20/13/6 26/12/6 22/9/6 14/8/6
f 18/8/7 19/13/7 20/13/7
f 15/14/8 21/10/8 22/9/8
f 15/14/9 23/10/9 21/10/9
f 15/14/10 24/9/10 23/10/10
f 15/14/11 25/12/11 24/9/11
f 15/14/12 26/12/12 25/12/12
f 15/14/13 22/9/13 26/12/13
f 27/15/14 35/16/14 34/17/14 29/18/14
f 29/18/15 34/17/15 36/17/15 30/18/15
f 30/18/16 36/17/16 37/16/16 31/19/16
f 31/19/17 37/16/17 38/20/17 32/21/17
f 32/21/18 38/20/18 39/20/18 33/21/18
f 33/21/19 39/20/19 35/16/19 27/15/19
f 32/21/7 33/21/7 29/18/7
f 28/22/20 34/17/20 35/16/20
f 28/22/21 36/17/21 34/17/21
f 28/22/22 37/16/22 36/17/22
f 28/22/23 38/20/23 37/16/23
f 28/22/24 39/20/24 38/20/24
f 28/22/25 35/16/25 39/20/25
f 40/23/1 48/24/1 47/25/1 42/26/1
f 42/26/2 47/25/2 49/25/2 43/26/2
f 43/26/3 49/25/3 50/24/3 44/23/3
f 44/23/4 50/24/4 51/27/4 45/28/4
f 45/28/5 51/27/5 52/27/5 46/28/5
f 46/28/6 52/27/6 48/24/6 40/23/6
f 44/23/7 45/28/7 46/28/7
f 41/29/8 47/25/8 48/24/8
f 41/29/9 49/25/9 47/25/9
f 41/29/10 50/24/10 49/25/10
f 41/29/11 51/27/11 50/24/11
f 41/29/12 52/27/12 51/27/12
f 41/29/13 48/24/13 52/27/13
f 53/30/26 61/31/26 60/32/26 55/33/26
f 55/33/27 60/32/27 62/34/27 56/35/27
f 56/35/28 62/34/28 63/36/28 57/37/28
f 57/37/29 63/36/29 64/38/29 58/39/29
f 58/39/30 64/38/30 65/40/30 59/41/30
f 59/41/31 65/40/31 61/31/31 53/30/31
f 59/41/7 56/35/7 58/39/7
f 54/42/32 60/32/32 61/31/32
f 54/42/33 62/34/33 60/32/33
f 54/42/34 63/36/34 62/34/34
f 54/42/35 64/38/35 63/36/35
f 54/42/36 65/40/36 64/38/36
f 54/42/37 61/31/37 65/40/37
f 66/43/38 74/44/38 73/45/38 68/46/38
f 68/46/39 73/45/39 75/47/39 69/48/39
f 69/48/40 75/47/40 76/49/40 70/50/40
f 70/50/41 76/49/41 77/51/41 71/52/41
f 71/52/42 77/51/42 78/53/42 72/54/42
f 72/54/43 78/53/43 74/44/43 66/43/43
f 72/54/7 69/48/7 71/52/7
f 67/55/44 73/45/44 74/44/44
f 67/55/45 75/47/45 73/45/45
f 67/55/46 76/49/46 75/47/46
f 67/55/47 77/51/47 76/49/47
f 67/55/48 78/53/48 77/51/48
f 67/55/49 74/44/49 78/53/49
f 79/56/50 87/57/50 86/58/50 81/59/50
f 81/59/51 86/58/51 88/60/51 82/61/51
f 82/61/52 88/60/52 89/62/52 83/63/52
f 83/63/53 89/62/53 90/64/53 84/65/53
f 84/65/54 90/64/54 91/66/54 85/67/54
f 85/67/55 91/66/55 87/57/55 79/56/55
f 85/67/7 82/61/7 84/65/7
f 80/68/56 86/58/56 87/57/56
f 80/68/57 88/60/57 86/58/57
f 80/68/58 89/62/58 88/60/58
f 80/68/59 90/64/59 89/62/59
f 80/68/60 91/66/60 90/64/60
f 80/68/61 87/57/61 91/66/61
f 92/69/62 100/70/62 99/71/62 94/72/62
f 94/72/63 99/71/63 101/73/63 95/74/63
f 95/74/64 101/73/64 102/75/64 96/76/64
f 96/76/65 102/75/65 103/77/65 97/78/65
f 97/78/66 103/77/66 104/79/66 98/80/66
f 98/80/67 104/79/67 100/70/67 92/69/67
f 98/80/7 95/74/7 97/78/7
f 93/81/68 99/71/68 100/70/68
f 93/81/69 101/73/69 99/71/69
f 93/81/70 102/75/70 101/73/70
f 93/81/71 103/77/71 102/75/71
f 93/81/72 104/79/72 103/77/72
f 93/81/73 100/70/73 104/79/73
f 7/6/7 1/1/7 3/4/7
f 3/4/7 4/4/7 5/1/7
f 5/1/7 6/6/7 3/4/7
f 20/13/7 14/8/7 18/8/7
f 14/8/7 16/11/7 18/8/7
f 16/11/7 17/11/7 18/8/7
f 33/21/7 27/15/7 29/18/7
f 29/18/7 30/18/7 32/21/7
f 30/18/7 31/19/7 32/21/7
f 46/28/7 40/23/7 44/23/7
f 40/23/7 42/26/7 44/23/7
f 42/26/7 43/26/7 44/23/7
f 59/41/7 53/30/7 55/33/7
f 55/33/7 56/35/7 59/41/7
f 56/35/7 57/37/7 58/39/7
f 72/54/7 66/43/7 68/46/7
f 68/46/7 69/48/7 72/54/7
f 69/48/7 70/50/7 71/52/7
f 85/67/7 79/56/7 81/59/7
f 81/59/7 82/61/7 85/67/7
f 82/61/7 83/63/7 84/65/7
f 98/80/7 92/69/7 94/72/7
f 94/72/7 95/74/7 98/80/7
f 95/74/7 96/76/7 97/78/7
